<svg xmlns="http://www.w3.org/2000/svg" width="760" height="210" viewBox="0 0 760 210">
<rect width="100%" height="100%" rx="14" fill="#071018"/>
<text x="24" y="34" fill="#2dd4bf" font-family="ui-sans-serif,system-ui,sans-serif" font-size="16" font-weight="700">GitHub snapshot</text>
<text x="24" y="54" fill="#64748B" font-family="ui-monospace,Menlo,monospace" font-size="11">live metrics · refreshed with profile</text>
<rect x="24" y="72" width="220" height="52" rx="10" fill="#0c1a1f" stroke="#134e4a"/>
<text x="40" y="94" fill="#94a3b8" font-family="ui-sans-serif,system-ui,sans-serif" font-size="11">Public repos</text>
<text x="40" y="114" fill="#f8fafc" font-family="ui-sans-serif,system-ui,sans-serif" font-size="18" font-weight="700">113</text>
<rect x="264" y="72" width="220" height="52" rx="10" fill="#0c1a1f" stroke="#134e4a"/>
<text x="280" y="94" fill="#94a3b8" font-family="ui-sans-serif,system-ui,sans-serif" font-size="11">Original repos</text>
<text x="280" y="114" fill="#f8fafc" font-family="ui-sans-serif,system-ui,sans-serif" font-size="18" font-weight="700">87</text>
<rect x="504" y="72" width="220" height="52" rx="10" fill="#0c1a1f" stroke="#134e4a"/>
<text x="520" y="94" fill="#94a3b8" font-family="ui-sans-serif,system-ui,sans-serif" font-size="11">Followers</text>
<text x="520" y="114" fill="#f8fafc" font-family="ui-sans-serif,system-ui,sans-serif" font-size="18" font-weight="700">25</text>
<rect x="24" y="134" width="220" height="52" rx="10" fill="#0c1a1f" stroke="#134e4a"/>
<text x="40" y="156" fill="#94a3b8" font-family="ui-sans-serif,system-ui,sans-serif" font-size="11">Stars earned</text>
<text x="40" y="176" fill="#f8fafc" font-family="ui-sans-serif,system-ui,sans-serif" font-size="18" font-weight="700">52</text>
<rect x="264" y="134" width="220" height="52" rx="10" fill="#0c1a1f" stroke="#134e4a"/>
<text x="280" y="156" fill="#94a3b8" font-family="ui-sans-serif,system-ui,sans-serif" font-size="11">2y contributions</text>
<text x="280" y="176" fill="#f8fafc" font-family="ui-sans-serif,system-ui,sans-serif" font-size="18" font-weight="700">7,547</text>
<rect x="504" y="134" width="220" height="52" rx="10" fill="#0c1a1f" stroke="#134e4a"/>
<text x="520" y="156" fill="#94a3b8" font-family="ui-sans-serif,system-ui,sans-serif" font-size="11">Since</text>
<text x="520" y="176" fill="#f8fafc" font-family="ui-sans-serif,system-ui,sans-serif" font-size="18" font-weight="700">2016</text>
</svg>