<svg xmlns="http://www.w3.org/2000/svg" width="420" height="210" viewBox="0 0 420 210">
<rect width="100%" height="100%" rx="14" fill="#071018"/>
<text x="24" y="34" fill="#2dd4bf" font-family="ui-sans-serif,system-ui,sans-serif" font-size="16" font-weight="700">Top languages</text>
<text x="24" y="54" fill="#64748B" font-family="ui-monospace,Menlo,monospace" font-size="11">by original public repos</text>
<text x="24" y="82" fill="#cbd5e1" font-family="ui-sans-serif,system-ui,sans-serif" font-size="12">PHP</text>
<rect x="120" y="70" width="280" height="14" rx="4" fill="#0c1a1f"/>
<rect x="120" y="70" width="280" height="14" rx="4" fill="#777BB4"/>
<text x="408" y="81" fill="#94a3b8" font-size="11" text-anchor="end" font-family="ui-monospace,Menlo,monospace">49</text>
<text x="24" y="104" fill="#cbd5e1" font-family="ui-sans-serif,system-ui,sans-serif" font-size="12">Python</text>
<rect x="120" y="92" width="280" height="14" rx="4" fill="#0c1a1f"/>
<rect x="120" y="92" width="45" height="14" rx="4" fill="#FF2D20"/>
<text x="408" y="103" fill="#94a3b8" font-size="11" text-anchor="end" font-family="ui-monospace,Menlo,monospace">8</text>
<text x="24" y="126" fill="#cbd5e1" font-family="ui-sans-serif,system-ui,sans-serif" font-size="12">TypeScript</text>
<rect x="120" y="114" width="280" height="14" rx="4" fill="#0c1a1f"/>
<rect x="120" y="114" width="28" height="14" rx="4" fill="#3178C6"/>
<text x="408" y="125" fill="#94a3b8" font-size="11" text-anchor="end" font-family="ui-monospace,Menlo,monospace">5</text>
<text x="24" y="148" fill="#cbd5e1" font-family="ui-sans-serif,system-ui,sans-serif" font-size="12">Dart</text>
<rect x="120" y="136" width="280" height="14" rx="4" fill="#0c1a1f"/>
<rect x="120" y="136" width="28" height="14" rx="4" fill="#42B883"/>
<text x="408" y="147" fill="#94a3b8" font-size="11" text-anchor="end" font-family="ui-monospace,Menlo,monospace">5</text>
<text x="24" y="170" fill="#cbd5e1" font-family="ui-sans-serif,system-ui,sans-serif" font-size="12">HTML</text>
<rect x="120" y="158" width="280" height="14" rx="4" fill="#0c1a1f"/>
<rect x="120" y="158" width="28" height="14" rx="4" fill="#3776AB"/>
<text x="408" y="169" fill="#94a3b8" font-size="11" text-anchor="end" font-family="ui-monospace,Menlo,monospace">5</text>
<text x="24" y="192" fill="#cbd5e1" font-family="ui-sans-serif,system-ui,sans-serif" font-size="12">Java</text>
<rect x="120" y="180" width="280" height="14" rx="4" fill="#0c1a1f"/>
<rect x="120" y="180" width="11" height="14" rx="4" fill="#F7DF1E"/>
<text x="408" y="191" fill="#94a3b8" font-size="11" text-anchor="end" font-family="ui-monospace,Menlo,monospace">2</text>
</svg>